<svg width="21" height="20" viewBox="0 0 21 20" fill="none" xmlns="http://www.w3.org/2000/svg">
<path d="M20 16C20 16.1699 19.9134 16.4467 19.5056 16.8139C19.0981 17.181 18.4521 17.5574 17.5686 17.8939C15.8087 18.5644 13.3098 19 10.5 19C7.69021 19 5.19134 18.5644 3.43137 17.8939C2.54792 17.5574 1.90193 17.181 1.49438 16.8139C1.0866 16.4467 1 16.1699 1 16C1 15.8301 1.0866 15.5533 1.49438 15.1861C1.90193 14.819 2.54792 14.4426 3.43137 14.1061C5.19134 13.4356 7.69021 13 10.5 13C13.3098 13 15.8087 13.4356 17.5686 14.1061C18.4521 14.4426 19.0981 14.819 19.5056 15.1861C19.9134 15.5533 20 15.8301 20 16Z" stroke="black" stroke-width="2"/>
<path d="M10.1464 11.3536C10.3417 11.5488 10.6583 11.5488 10.8536 11.3536L14.0355 8.17157C14.2308 7.97631 14.2308 7.65973 14.0355 7.46447C13.8403 7.2692 13.5237 7.2692 13.3284 7.46447L10.5 10.2929L7.67157 7.46447C7.47631 7.2692 7.15973 7.2692 6.96447 7.46447C6.7692 7.65973 6.7692 7.97631 6.96447 8.17157L10.1464 11.3536ZM10 0V11H11V0L10 0Z" fill="black"/>
</svg>
