<svg width="28" height="26" viewBox="0 0 28 26" fill="none" xmlns="http://www.w3.org/2000/svg">
<path d="M20.435 1.78047L1.58377 17.2042C0.715005 17.915 0.601221 19.2014 1.33173 20.0537L4.74528 24.0362C5.44556 24.8532 6.66673 24.9696 7.50884 24.2998L26.4304 9.24851C27.2966 8.55954 27.4385 7.29814 26.7471 6.43392L23.2632 2.07899C22.5678 1.20976 21.2965 1.07557 20.435 1.78047Z" stroke="black"/>
<path d="M24.4969 5.05521C24.5274 4.78076 24.3297 4.53355 24.0552 4.50306L19.5827 4.00611C19.3083 3.97562 19.0611 4.17339 19.0306 4.44784C19.0001 4.72229 19.1979 4.9695 19.4723 5L23.4478 5.44172L23.0061 9.41726C22.9756 9.69171 23.1734 9.93892 23.4478 9.96942C23.7223 9.99991 23.9695 9.80214 24 9.52769L24.4969 5.05521ZM14.3123 13.3904L24.3123 5.39043L23.6877 4.60956L13.6877 12.6096L14.3123 13.3904Z" fill="black"/>
<path d="M3.50306 20.9448C3.47256 21.2192 3.67033 21.4664 3.94479 21.4969L8.41726 21.9939C8.69172 22.0244 8.93893 21.8266 8.96942 21.5522C8.99991 21.2777 8.80215 21.0305 8.52769 21L4.55216 20.5583L4.99388 16.5827C5.02438 16.3083 4.82661 16.0611 4.55216 16.0306C4.27771 16.0001 4.0305 16.1979 4 16.4723L3.50306 20.9448ZM13.6877 12.6096L3.68765 20.6096L4.31235 21.3904L14.3123 13.3904L13.6877 12.6096Z" fill="black"/>
</svg>
