<svg width="30" height="30" viewBox="0 0 30 30" fill="none" xmlns="http://www.w3.org/2000/svg">
<path d="M2.5 7.5C0.530022 10.7393 -0.0338348 13.2465 0.500001 17C0.821809 19.2627 1.3077 20.5502 2.5 22.5C4.15825 25.2118 5.65051 26.5914 8.5 28C11.0062 29.2389 12.7059 29.5947 15.5 29.5C17.9139 29.4182 19.3316 29.0637 21.5 28C23.745 26.8987 24.9327 25.9485 26.5 24C28.2522 21.8215 29.005 20.2516 29.5 17.5C29.9852 14.8027 29 10.5 29 10.5C29 10.5 28.1947 16.6282 25.5 19C23.7289 20.5588 22.3272 21.6118 20 22C17.2762 22.4544 16 22 13.5 21C11.5728 20.2291 10.0271 18.8037 9 17C8.01465 15.2696 7.87688 13.9875 8 12C8.15695 9.46645 8.73372 7.82312 10.5 6C11.8988 4.55614 13.067 4.05228 15 3.5C18.5 2.5 23.5 3.5 23.5 3.5C23.5 3.5 19.5 0.5 15.5 0.5C12.7043 0.5 11.0062 0.761099 8.5 2C5.65051 3.40858 4.15164 4.78415 2.5 7.5Z" fill="#219FFB"/>
<circle cx="20" cy="7" r="1" fill="#70D4FF"/>
<circle cx="15.5" cy="13.5" r="2.5" fill="#A8D5FF"/>
<circle cx="24.5" cy="13.5" r="0.5" fill="#91D7FF"/>
</svg>
